<?xml version="1.0" encoding="UTF-8"?>
<svg width="242px" height="247px" viewBox="0 0 242 247" version="1.1" xmlns="http://www.w3.org/2000/svg" xmlns:xlink="http://www.w3.org/1999/xlink">
    <!-- Generator: Sketch 47.1 (45422) - http://www.bohemiancoding.com/sketch -->
    <title>noun_1295891_cc</title>
    <desc>Created with Sketch.</desc>
    <defs>
        <path d="M119,0.625 C53.2827148,0.625 0,53.9077148 0,119.625 C0,185.342285 53.2827148,238.625 119,238.625 C184.731695,238.625 238,185.342285 238,119.625 C238,53.9077148 184.731695,0.625 119,0.625 Z" id="path-1"></path>
        <filter x="-2.9%" y="-2.1%" width="105.9%" height="105.9%" filterUnits="objectBoundingBox" id="filter-2">
            <feOffset dx="0" dy="2" in="SourceAlpha" result="shadowOffsetOuter1"></feOffset>
            <feGaussianBlur stdDeviation="2" in="shadowOffsetOuter1" result="shadowBlurOuter1"></feGaussianBlur>
            <feColorMatrix values="0 0 0 0 0   0 0 0 0 0   0 0 0 0 0  0 0 0 0.5 0" type="matrix" in="shadowBlurOuter1"></feColorMatrix>
        </filter>
    </defs>
    <g id="Click-Dummy" stroke="none" stroke-width="1" fill="none" fill-rule="evenodd">
        <g id="LegalTeamMentionLoggedOut" transform="translate(-78.000000, -196.000000)">
            <g id="noun_1295891_cc" transform="translate(82.000000, 198.000000)">
                <g id="Path">
                    <use fill="black" fill-opacity="1" filter="url(#filter-2)" xlink:href="#path-1"></use>
                    <use fill="#FFFFFF" fill-rule="evenodd" xlink:href="#path-1"></use>
                </g>
                <path d="M119,0.625 C53.2827148,0.625 0,53.9077148 0,119.625 C0,185.342285 53.2827148,238.625 119,238.625 C184.731695,238.625 238,185.342285 238,119.625 C238,53.9077148 184.731695,0.625 119,0.625 Z M151.451672,165.947016 C145.59743,172.512934 137.143781,176.37718 126.088867,177.539289 L126.088867,194.375 L111.998059,194.375 L111.998059,177.626215 C93.5642148,175.73802 82.160668,165.017328 77.7595273,145.493891 L99.5490781,139.813965 C101.568359,152.088629 108.250488,158.218988 119.595465,158.218988 C124.897473,158.218988 128.819824,156.911848 131.318359,154.282227 C133.816895,151.652605 135.06593,148.48609 135.06593,144.76734 C135.06593,140.917969 133.81643,137.99782 131.318359,136.022234 C128.819824,134.032703 123.256109,131.518828 114.64209,128.468523 C106.899652,125.781727 100.841809,123.13723 96.4838984,120.494129 C92.1259883,117.879383 88.5815547,114.204328 85.8650078,109.48291 C83.1484609,104.747082 81.7832148,99.2270625 81.7832148,92.9516719 C81.7832148,84.7151055 84.2236445,77.2920156 89.0756836,70.6972773 C93.9277227,64.1169492 101.568359,60.0927969 111.998523,58.62575 L111.998523,45.625 L126.089332,45.625 L126.089332,58.6262148 C141.835914,60.514875 152.033656,69.4194219 156.667219,85.3547305 L137.259992,93.3151797 C133.468727,82.3913516 127.62843,76.9294375 119.69773,76.9294375 C115.717273,76.9294375 112.521473,78.1496523 110.124738,80.590082 C107.713129,83.0305117 106.507789,85.9938906 106.507789,89.4658086 C106.507789,93.0102422 107.669898,95.7267891 109.994117,97.6298594 C112.303926,99.5185195 117.286586,101.857148 124.898402,104.660621 C133.26559,107.711391 139.831508,110.601789 144.581746,113.318336 C149.346395,116.034883 153.13766,119.797328 155.984828,124.576387 C158.817586,129.37032 160.240473,134.96332 160.240473,141.369332 C160.240473,151.202637 157.305914,159.395508 151.451672,165.947016 Z" id="Shape" fill="#214D5F"></path>
            </g>
        </g>
    </g>
</svg>