<?xml version="1.0" encoding="UTF-8"?>
<svg width="108px" height="108px" viewBox="0 0 108 108" version="1.1" xmlns="http://www.w3.org/2000/svg" xmlns:xlink="http://www.w3.org/1999/xlink">
    <!-- Generator: Sketch 47.1 (45422) - http://www.bohemiancoding.com/sketch -->
    <title>dollar</title>
    <desc>Created with Sketch.</desc>
    <defs>
        <circle id="path-1" cx="50" cy="50" r="50"></circle>
        <filter x="-7.0%" y="-5.0%" width="114.0%" height="114.0%" filterUnits="objectBoundingBox" id="filter-2">
            <feOffset dx="0" dy="2" in="SourceAlpha" result="shadowOffsetOuter1"></feOffset>
            <feGaussianBlur stdDeviation="2" in="shadowOffsetOuter1" result="shadowBlurOuter1"></feGaussianBlur>
            <feColorMatrix values="0 0 0 0 0   0 0 0 0 0   0 0 0 0 0  0 0 0 0.5 0" type="matrix" in="shadowBlurOuter1"></feColorMatrix>
        </filter>
    </defs>
    <g id="Click-Dummy" stroke="none" stroke-width="1" fill="none" fill-rule="evenodd">
        <g id="LegalTeamMentionLoggedOut" transform="translate(-191.000000, -419.000000)">
            <g id="dollar" transform="translate(195.000000, 421.000000)">
                <g id="Oval">
                    <use fill="black" fill-opacity="1" filter="url(#filter-2)" xlink:href="#path-1"></use>
                    <use fill="#FFFFFF" fill-rule="evenodd" xlink:href="#path-1"></use>
                </g>
                <path d="M50,0 C22.3876953,0 0,22.3876953 0,50 C0,77.6123046 22.3876953,100 50,100 C77.6183592,100 100,77.6123046 100,50 C100,22.3876953 77.6183592,0 50,0 Z M63.6351563,69.4630319 C61.1753908,72.221821 57.6234374,73.8454538 52.9785155,74.3337349 L52.9785155,81.407563 L47.058008,81.407563 L47.058008,74.3702584 C39.3126953,73.5768992 34.5212891,69.0724067 32.6720703,60.8692819 L41.8273437,58.4827584 C42.6757811,63.6401803 45.4833983,66.2159613 50.2501954,66.2159613 C52.4779298,66.2159613 54.1259765,65.6667429 55.1757811,64.5618601 C56.2255861,63.4569769 56.7503908,62.1265084 56.7503908,60.5640084 C56.7503908,58.9466256 56.2253908,57.7196723 55.1757811,56.8895941 C54.1259765,56.0536567 51.7882811,54.9974067 48.1689454,53.715766 C44.9158202,52.5868601 42.370508,51.4757269 40.5394531,50.3651803 C38.7083984,49.2665475 37.2191406,47.7224067 36.0777344,45.7386176 C34.9363281,43.7487739 34.3626953,41.429438 34.3626953,38.7927193 C34.3626953,35.3319771 35.3880859,32.2130318 37.4267578,29.4421333 C39.4654297,26.6772896 42.6757811,24.9864693 47.0582029,24.370063 L47.0582029,18.907563 L52.9787109,18.907563 L52.9787109,24.3702583 C59.5949218,25.163813 63.8796874,28.9052193 65.8265626,35.6007271 L57.6722655,38.9454537 C56.0792971,34.3556099 53.6253908,32.060688 50.2931639,32.060688 C48.6207029,32.060688 47.2779298,32.5733833 46.2708983,33.5987739 C45.2576172,34.6241646 44.7511718,35.8692818 44.7511718,37.3280708 C44.7511718,38.8173287 45.2394529,39.9587349 46.2160155,40.7583443 C47.1865235,41.5518989 49.2800782,42.534516 52.4783202,43.7124458 C55.9939454,44.9942819 58.7527345,46.2087349 60.7486328,47.3501412 C62.7505861,48.4915475 64.3435546,50.0724067 65.5398437,52.0804147 C66.7300782,54.0946723 67.3279298,56.4446723 67.3279298,59.1362739 C67.3279298,63.2679147 66.0949218,66.7102975 63.6351563,69.4630319 Z" id="Shape" fill="#214D5F" fill-rule="nonzero"></path>
            </g>
        </g>
    </g>
</svg>