<?xml version="1.0" encoding="UTF-8"?>
<svg width="84px" height="84px" viewBox="0 0 84 84" version="1.1" xmlns="http://www.w3.org/2000/svg" xmlns:xlink="http://www.w3.org/1999/xlink">
    <!-- Generator: Sketch 47.1 (45422) - http://www.bohemiancoding.com/sketch -->
    <title>noun_1232064_cc</title>
    <desc>Created with Sketch.</desc>
    <defs></defs>
    <g id="Click-Dummy" stroke="none" stroke-width="1" fill="none" fill-rule="evenodd">
        <g id="LegalTeamMentionLoggedOut" transform="translate(-131.000000, -425.000000)">
            <g id="noun_1232064_cc" transform="translate(132.000000, 426.000000)">
                <g id="Group">
                    <circle id="Oval" stroke="#979797" fill="#FFFFFF" cx="41" cy="41" r="41"></circle>
                    <path d="M57.8715,48.1203333 C55.3124167,48.4756667 51.7659167,49.3879167 49.405,51.7488333 C47.1465833,54.0038333 46.15575,57.65625 45.7696667,60.5638333 C48.39025,60.0513333 51.8615833,58.9545833 54.2361667,56.58 C56.6039167,54.21225 57.523,50.717 57.8715,48.1203333 Z" id="Shape" fill="#214D5F" fill-rule="nonzero"></path>
                    <path d="M41,0.07175 C18.3919167,0.07175 0,18.4636667 0,41.07175 C0,62.71975 16.8749167,80.4556667 38.1539167,81.9248333 L38.1539167,78.6550833 C38.1539167,77.3465 38.3008333,75.49125 38.5844167,73.4890833 C34.79875,73.349 27.675,72.4230833 22.9258333,67.6705 C16.5810833,61.32575 17.0765,51.0074167 17.1004167,50.5666667 L17.2678333,47.52925 L20.32575,47.3481667 C20.32575,47.3481667 20.623,47.3276667 21.1525833,47.3276667 C24.2856667,47.3276667 32.1474167,47.8948333 37.42275,53.1735833 C38.30425,54.0550833 39.0559167,55.022 39.7119167,56.0230833 C40.5148333,52.9139167 41.9600833,49.5314167 44.5738333,46.91425 C49.84575,41.6355 57.7040833,41.0683333 60.8371667,41.0683333 C61.3701667,41.0683333 61.67425,41.0888333 61.67425,41.0888333 L64.7150833,41.2699167 L64.8995833,44.3141667 C64.9235,44.7480833 65.4120833,55.0698333 59.07075,61.4111667 C55.5584167,64.9200833 50.8024167,66.5156667 47.232,67.2365833 C46.1318333,69.3856667 44.98725,74.9924167 44.9906667,78.6550833 L44.9906667,81.8633333 C65.7298333,79.85775 82,62.3336667 82,41.07175 C82,18.4636667 63.6080833,0.07175 41,0.07175 Z" id="Shape" fill="#214D5F" fill-rule="nonzero"></path>
                    <path d="M27.7604167,62.84275 C29.87875,64.9576667 33.3261667,66.0578333 36.5754167,66.4780833 C36.06975,63.8609167 34.9661667,60.3861667 32.5915833,58.0081667 C30.2340833,55.64725 26.6875833,54.7315833 24.1250833,54.3796667 C24.477,56.9695 25.3926667,60.4715833 27.7604167,62.84275 Z" id="Shape" fill="#214D5F" fill-rule="nonzero"></path>
                </g>
            </g>
        </g>
    </g>
</svg>