<?xml version="1.0" encoding="UTF-8"?>
<svg width="98px" height="98px" viewBox="0 0 98 98" version="1.1" xmlns="http://www.w3.org/2000/svg" xmlns:xlink="http://www.w3.org/1999/xlink">
    <!-- Generator: Sketch 47.1 (45422) - http://www.bohemiancoding.com/sketch -->
    <title>people_group</title>
    <desc>Created with Sketch.</desc>
    <defs>
        <path d="M45,0 C20.147,0 0,20.147 0,45 C0,69.853 20.147,90 45,90 C69.853,90 90,69.853 90,45 C90,20.147 69.853,0 45,0 Z" id="path-1"></path>
        <filter x="-7.8%" y="-5.6%" width="115.6%" height="115.6%" filterUnits="objectBoundingBox" id="filter-2">
            <feOffset dx="0" dy="2" in="SourceAlpha" result="shadowOffsetOuter1"></feOffset>
            <feGaussianBlur stdDeviation="2" in="shadowOffsetOuter1" result="shadowBlurOuter1"></feGaussianBlur>
            <feColorMatrix values="0 0 0 0 0   0 0 0 0 0   0 0 0 0 0  0 0 0 0.5 0" type="matrix" in="shadowBlurOuter1"></feColorMatrix>
        </filter>
    </defs>
    <g id="Click-Dummy" stroke="none" stroke-width="1" fill="none" fill-rule="evenodd">
        <g id="LegalTeamMentionLoggedOut" transform="translate(-49.000000, -177.000000)" fill-rule="nonzero">
            <g id="people_group" transform="translate(53.000000, 179.000000)">
                <g id="Path">
                    <use fill="black" fill-opacity="1" filter="url(#filter-2)" xlink:href="#path-1"></use>
                    <use fill="#FFFFFF" fill-rule="evenodd" xlink:href="#path-1"></use>
                </g>
                <path d="M45,0 C20.147,0 0,20.147 0,45 C0,69.853 20.147,90 45,90 C69.853,90 90,69.853 90,45 C90,20.147 69.853,0 45,0 Z M64.153,16.825 C68.54,16.825 72.109,20.394 72.109,24.781 C72.109,29.168 68.54,32.738 64.153,32.738 C59.765,32.738 56.196,29.169 56.196,24.781 C56.196,20.393 59.766,16.825 64.153,16.825 Z M45.001,12.279 C49.388,12.279 52.957,15.848 52.957,20.235 C52.957,24.622 49.388,28.192 45.001,28.192 C40.614,28.192 37.045,24.623 37.045,20.235 C37.045,15.847 40.614,12.279 45.001,12.279 Z M25.849,16.825 C30.237,16.825 33.806,20.394 33.806,24.781 C33.806,29.168 30.237,32.738 25.849,32.738 C21.462,32.738 17.893,29.169 17.893,24.781 C17.893,20.393 21.462,16.825 25.849,16.825 Z M75.845,54.561 C75.845,56.959 74.162,58.974 71.863,59.42 L71.863,68.799 C71.863,71.487 69.669,73.673 66.971,73.673 L61.334,73.673 C58.637,73.673 56.442,71.487 56.442,68.799 L56.442,59.42 C54.65,59.072 53.245,57.767 52.707,56.076 L52.707,68.796 C52.707,71.486 50.515,73.675 47.82,73.675 L42.18,73.675 C39.486,73.675 37.293,71.486 37.293,68.796 L37.293,56.072 C36.755,57.765 35.35,59.072 33.557,59.42 L33.557,68.799 C33.557,71.487 31.363,73.673 28.665,73.673 L23.028,73.673 C20.331,73.673 18.136,71.487 18.136,68.799 L18.136,59.42 C15.836,58.973 14.154,56.958 14.154,54.561 L14.154,41.041 C14.154,38.313 16.373,36.095 19.1,36.095 L32.592,36.095 C32.85,36.095 33.099,36.117 33.34,36.154 C33.518,33.587 35.641,31.547 38.252,31.547 L51.746,31.547 C54.357,31.547 56.48,33.587 56.658,36.154 C56.899,36.117 57.147,36.095 57.404,36.095 L70.896,36.095 C73.624,36.095 75.842,38.314 75.842,41.041 L75.842,54.561 L75.845,54.561 Z" id="Shape" fill="#214D5F"></path>
            </g>
        </g>
    </g>
</svg>